<svg width="20" height="20" viewBox="0 0 20 20" fill="none" xmlns="http://www.w3.org/2000/svg">
<g clip-path="url(#clip0)">
<path d="M17.7083 0H2.29172C1.02753 0 0 1.02753 0 2.29172V17.7083C0 18.9725 1.02753 20 2.29172 20H17.7083C18.9725 20 20 18.9725 20 17.7083V2.29172C20 1.02753 18.9725 0 17.7083 0V0Z" fill="#F44336"/>
<path d="M13.6827 12.5041C14.0085 12.8301 14.0085 13.3576 13.6827 13.6826C13.5202 13.8451 13.3069 13.9267 13.0934 13.9267C12.8801 13.9267 12.6668 13.8451 12.5042 13.6826L10.0001 11.1783L7.49601 13.6826C7.3335 13.8451 7.12019 13.9267 6.90687 13.9267C6.6934 13.9267 6.48008 13.8451 6.31757 13.6826C5.9918 13.3576 5.9918 12.8301 6.31757 12.5041L8.82185 10L6.31757 7.49589C5.9918 7.16996 5.9918 6.64246 6.31757 6.31745C6.6435 5.99168 7.17008 5.99168 7.49601 6.31745L10.0001 8.82172L12.5042 6.31745C12.8302 5.99168 13.3568 5.99168 13.6827 6.31745C14.0085 6.64246 14.0085 7.16996 13.6827 7.49589L11.1784 10L13.6827 12.5041Z" fill="#FAFAFA"/>
</g>
<defs>
<clipPath id="clip0">
<rect width="20" height="20" fill="white"/>
</clipPath>
</defs>
</svg>
